D:\school\WTK\thesis\model\3dpredictsim\Results\Batchsim_tmt_linear\Pog_s1_tmt_bCst_d05_k250_ig24_pas_GRF.mot
nRows=25
nColumns=19

name D:\school\WTK\thesis\model\3dpredictsim\Results\Batchsim_tmt_linear\Pog_s1_tmt_bCst_d05_k250_ig24_pas_GRF.mot
datacolumns 19
datarows 25
range 0.0000000000 0.2659679695
endheader
time 	ground_force_vx	ground_force_vy	ground_force_vz	ground_force_px	ground_force_py	ground_force_pz	1_ground_force_vx	1_ground_force_vy	1_ground_force_vz	1_ground_force_px	1_ground_force_py	1_ground_force_pz	ground_torque_x	ground_torque_y	ground_torque_z	1_ground_torque_x	1_ground_torque_y	1_ground_torque_z
        0.0000000000	      -68.8989701744	       57.6307243126	       27.8298877067	        0.1758776274	        0.0000000000	        0.0383022647	      100.6318657579	      522.2273642484	       -3.2817693493	       -0.3112228480	        0.0000000000	       -0.0351217235	        0.0000000000	        0.0000000000	        0.0000000000	        0.0000000000	        0.0000000000	        0.0000000000	
        0.0110819987	     -108.8812040379	      128.5650285650	       72.1484207758	        0.1830656396	        0.0000000000	        0.0358549662	       84.2818485358	      445.4541002521	       -7.6329087636	       -0.3080069303	        0.0000000000	       -0.0344921948	        0.0000000000	        0.0000000000	        0.0000000000	        0.0000000000	        0.0000000000	        0.0000000000	
        0.0221639975	      -47.6025824839	      260.0903616068	       36.8511665326	        0.1883198175	        0.0000000000	        0.0332162067	       68.2801989292	      360.8120232469	       -8.6279611497	       -0.3031698352	        0.0000000000	       -0.0331007856	        0.0000000000	        0.0000000000	        0.0000000000	        0.0000000000	        0.0000000000	        0.0000000000	
        0.0332459962	      -41.3151802389	      407.7367404988	        6.1870531565	        0.1914243746	        0.0000000000	        0.0328276817	       45.3188671465	      263.6728662385	       -5.7354735896	       -0.2948708871	        0.0000000000	       -0.0300231311	        0.0000000000	        0.0000000000	        0.0000000000	        0.0000000000	        0.0000000000	        0.0000000000	
        0.0443279949	      -66.0916149544	      585.6384240205	       -4.4931681813	        0.1986729249	        0.0000000000	        0.0348469526	       24.9582009567	      176.3443605835	       -6.5712438857	       -0.2804624401	        0.0000000000	       -0.0238425948	        0.0000000000	        0.0000000000	        0.0000000000	        0.0000000000	        0.0000000000	        0.0000000000	
        0.0554099936	      -95.7790741491	      738.3985874699	       -9.6943617477	        0.2057209564	        0.0000000000	        0.0369930013	        7.4148351996	      136.3219998942	      -11.9833300450	       -0.2710222573	        0.0000000000	       -0.0189878227	        0.0000000000	        0.0000000000	        0.0000000000	        0.0000000000	        0.0000000000	        0.0000000000	
        0.0664919924	     -109.2201657019	      816.3743111167	      -11.8537503493	        0.2105303426	        0.0000000000	        0.0383202819	        1.9980753846	      106.2122438756	      -12.8908345819	       -0.2708120710	        0.0000000000	       -0.0191578251	        0.0000000000	        0.0000000000	        0.0000000000	        0.0000000000	        0.0000000000	        0.0000000000	
        0.0775739911	     -108.5722689498	      833.2709841224	      -12.1708374440	        0.2139755283	        0.0000000000	        0.0391254044	       -1.5604581163	       68.3596379964	      -11.7318610826	       -0.2702531218	        0.0000000000	       -0.0192100179	        0.0000000000	        0.0000000000	        0.0000000000	        0.0000000000	        0.0000000000	        0.0000000000	
        0.0886559898	     -101.5597496288	      819.9227815009	      -12.2233115637	        0.2169360211	        0.0000000000	        0.0395976118	       -6.6894441597	       27.8572108582	       -6.1346832561	       -0.2703414522	        0.0000000000	       -0.0189745104	        0.0000000000	        0.0000000000	        0.0000000000	        0.0000000000	        0.0000000000	        0.0000000000	
        0.0997379886	      -92.0323218985	      799.9722664846	      -13.0653531559	        0.2200706061	        0.0000000000	        0.0398269087	        0.0482172253	       -0.0471158307	        0.0008261263	        0.0000000000	        0.0000000000	        0.0000000000	        0.0000000000	        0.0000000000	        0.0000000000	        0.0000000000	        0.0000000000	        0.0000000000	
        0.1108199873	      -79.9605192266	      772.7007864362	      -14.1933982700	        0.2233319746	        0.0000000000	        0.0399328570	        0.0000269626	       -0.0000214042	       -0.0000017296	        0.0000000000	        0.0000000000	        0.0000000000	        0.0000000000	        0.0000000000	        0.0000000000	        0.0000000000	        0.0000000000	        0.0000000000	
        0.1219019860	      -69.0778095099	      741.9872262008	      -14.5414680024	        0.2272148353	        0.0000000000	        0.0399658218	        0.0000221824	       -0.0000154641	       -0.0000017402	        0.0000000000	        0.0000000000	        0.0000000000	        0.0000000000	        0.0000000000	        0.0000000000	        0.0000000000	        0.0000000000	        0.0000000000	
        0.1329839848	      -59.9019932498	      713.1703231405	      -14.8978378801	        0.2316674336	        0.0000000000	        0.0398971082	        0.0002847584	       -0.0001784381	       -0.0000245288	        0.0000000000	        0.0000000000	        0.0000000000	        0.0000000000	        0.0000000000	        0.0000000000	        0.0000000000	        0.0000000000	        0.0000000000	
        0.1440659835	      -50.6999789474	      684.6418863891	      -15.4476088042	        0.2361441393	        0.0000000000	        0.0398368836	        0.0038106822	       -0.0021917314	       -0.0003465282	        0.0000000000	        0.0000000000	        0.0000000000	        0.0000000000	        0.0000000000	        0.0000000000	        0.0000000000	        0.0000000000	        0.0000000000	
        0.1551479822	      -42.0219794532	      657.6281877784	      -15.9784623626	        0.2405974961	        0.0000000000	        0.0398312596	       -0.0199009486	        0.0106532962	        0.0018763291	        0.0000000000	        0.0000000000	        0.0000000000	        0.0000000000	        0.0000000000	        0.0000000000	        0.0000000000	        0.0000000000	        0.0000000000	
        0.1662299809	      -34.6558704067	      634.1833541232	      -16.4624272858	        0.2450666004	        0.0000000000	        0.0398674913	       -0.0137820583	        0.0069383768	        0.0013370360	        0.0000000000	        0.0000000000	        0.0000000000	        0.0000000000	        0.0000000000	        0.0000000000	        0.0000000000	        0.0000000000	        0.0000000000	
        0.1773119797	      -28.4673833823	      614.8581154295	      -17.0607804491	        0.2495318260	        0.0000000000	        0.0399263605	       -0.0099831052	        0.0047690918	        0.0009889511	        0.0000000000	        0.0000000000	        0.0000000000	        0.0000000000	        0.0000000000	        0.0000000000	        0.0000000000	        0.0000000000	        0.0000000000	
        0.1883939784	      -23.0653027993	      600.0003011889	      -17.4214827225	        0.2542603240	        0.0000000000	        0.0399926815	       -0.0095443831	        0.0043585021	        0.0009580125	        0.0000000000	        0.0000000000	        0.0000000000	        0.0000000000	        0.0000000000	        0.0000000000	        0.0000000000	        0.0000000000	        0.0000000000	
        0.1994759771	      -19.1563737018	      589.9324810050	      -17.4289689111	        0.2593573951	        0.0000000000	        0.0400399651	       -0.0123206138	        0.0054101161	        0.0012438610	        0.0000000000	        0.0000000000	        0.0000000000	        0.0000000000	        0.0000000000	        0.0000000000	        0.0000000000	        0.0000000000	        0.0000000000	
        0.2105579759	      -16.1061453861	      584.0057037965	      -17.4138317420	        0.2648233390	        0.0000000000	        0.0400401758	       -0.0204909187	        0.0086951284	        0.0020607462	        0.0000000000	        0.0000000000	        0.0000000000	        0.0000000000	        0.0000000000	        0.0000000000	        0.0000000000	        0.0000000000	        0.0000000000	
        0.2216399746	      -14.7668819241	      581.4311023709	      -17.4370823918	        0.2705507631	        0.0000000000	        0.0399854291	       -0.0406454707	        0.0167421527	        0.0040509873	        0.0000000000	        0.0000000000	        0.0000000000	        0.0000000000	        0.0000000000	        0.0000000000	        0.0000000000	        0.0000000000	        0.0000000000	
        0.2327219733	      -14.0221724630	      581.1654210389	      -17.3749430861	        0.2763584025	        0.0000000000	        0.0398857075	       -0.0880763450	        0.0353612817	        0.0086737373	        0.0000000000	        0.0000000000	        0.0000000000	        0.0000000000	        0.0000000000	        0.0000000000	        0.0000000000	        0.0000000000	        0.0000000000	
        0.2438039721	      -13.0412443252	      581.8561448504	      -17.3478622708	        0.2822425277	        0.0000000000	        0.0397473617	       -0.1917356287	        0.0753221088	        0.0186202645	        0.0000000000	        0.0000000000	        0.0000000000	        0.0000000000	        0.0000000000	        0.0000000000	        0.0000000000	        0.0000000000	        0.0000000000	
        0.2548859708	      -11.9754484183	      582.2911736751	      -17.2407445802	        0.2881089151	        0.0000000000	        0.0395842909	       -0.3892499336	        0.1501945023	        0.0372146326	        0.0000000000	        0.0000000000	        0.0000000000	        0.0000000000	        0.0000000000	        0.0000000000	        0.0000000000	        0.0000000000	        0.0000000000	
        0.2659679695	      -10.5891823125	      581.7463003305	      -17.0050628638	        0.2938829756	        0.0000000000	        0.0394103986	       -0.6995108307	        0.2660397546	        0.0657065403	        0.0000000000	        0.0000000000	        0.0000000000	        0.0000000000	        0.0000000000	        0.0000000000	        0.0000000000	        0.0000000000	        0.0000000000	
